<svg width="68" height="62" viewBox="0 0 68 62" fill="none" xmlns="http://www.w3.org/2000/svg">
<g clip-path="url(#clip0_279_543)">
<g clip-path="url(#clip1_279_543)">
<path d="M49.4273 20.7019H42.7919L42.7225 20.5705C42.6952 20.5185 39.8274 15.3058 34.0025 15.3058C28.1776 15.3058 24.9801 20.5284 24.9479 20.573L24.876 20.6945H18.5207C18.455 20.6945 18.3919 20.6683 18.3454 20.6219C18.2989 20.5754 18.2728 20.5123 18.2728 20.4466C18.2728 20.3808 18.2989 20.3178 18.3454 20.2713C18.3919 20.2248 18.455 20.1987 18.5207 20.1987H24.5984C25.1313 19.3882 28.3933 14.8026 34.0025 14.8026C39.6117 14.8026 42.5837 19.3609 43.0844 20.1987H49.4273C49.493 20.1987 49.5561 20.2248 49.6026 20.2713C49.6491 20.3178 49.6752 20.3808 49.6752 20.4466C49.6752 20.5123 49.6491 20.5754 49.6026 20.6219C49.5561 20.6683 49.493 20.6945 49.4273 20.6945V20.7019Z" fill="white"/>
<path d="M45.6076 42.663H22.3576C22.2919 42.663 22.2288 42.6369 22.1823 42.5904C22.1359 42.5439 22.1097 42.4808 22.1097 42.4151C22.1097 42.3494 22.1359 42.2863 22.1823 42.2398C22.2288 42.1934 22.2919 42.1672 22.3576 42.1672H45.6076C45.6733 42.1672 45.7364 42.1934 45.7829 42.2398C45.8293 42.2863 45.8555 42.3494 45.8555 42.4151C45.8555 42.4808 45.8293 42.5439 45.7829 42.5904C45.7364 42.6369 45.6733 42.663 45.6076 42.663Z" fill="white"/>
<path d="M33.9207 62.3015C27.7592 62.302 21.736 60.4753 16.6127 57.0525C11.4894 53.6297 7.49616 48.7644 5.13803 43.072C2.7799 37.3796 2.16278 31.1158 3.36471 25.0727C4.56663 19.0295 7.53363 13.4786 11.8905 9.12172C16.2473 4.76489 21.7983 1.7979 27.8414 0.595968C33.8845 -0.60596 40.1484 0.0111623 45.8407 2.36929C51.5331 4.72742 56.3984 8.72063 59.8212 13.8439C63.2441 18.9672 65.0707 24.9905 65.0702 31.152C65.0604 39.4103 61.7754 47.3276 55.9359 53.1672C50.0964 59.0067 42.1791 62.2917 33.9207 62.3015ZM33.9207 0.495725C27.8574 0.495235 21.9301 2.29278 16.8883 5.66103C11.8466 9.02929 7.91695 13.817 5.59627 19.4186C3.27558 25.0203 2.66814 31.1843 3.85073 37.1312C5.03333 43.0781 7.95286 48.5408 12.2401 52.8284C16.5274 57.116 21.9898 60.0359 27.9366 61.219C33.8834 62.4021 40.0475 61.7952 45.6493 59.4749C51.2512 57.1547 56.0392 53.2254 59.4078 48.184C62.7765 43.1425 64.5745 37.2153 64.5745 31.152C64.5653 23.0247 61.3329 15.2329 55.5862 9.48576C49.8396 3.73865 42.048 0.505566 33.9207 0.495725Z" fill="white"/>
<path d="M33.9901 56.6551C28.9586 56.6556 24.0401 55.1639 19.8565 52.3687C15.673 49.5734 12.4124 45.6003 10.4871 40.9518C8.56192 36.3032 8.05857 31.1881 9.04076 26.2535C10.0229 21.3189 12.4465 16.7864 16.005 13.2293C19.5634 9.67224 24.0969 7.25041 29.0319 6.27015C33.9669 5.28988 39.0818 5.79523 43.7296 7.72226C48.3774 9.64929 52.3492 12.9114 55.1428 17.0961C57.9364 21.2807 59.4262 26.1999 59.4237 31.2313C59.4132 37.9726 56.7299 44.4346 51.9622 49.2005C47.1944 53.9664 40.7314 56.6472 33.9901 56.6551ZM33.9901 6.03307C29.0086 6.03258 24.1388 7.50918 19.9965 10.2762C15.8542 13.0432 12.6254 16.9763 10.7183 21.5782C8.81116 26.1802 8.31142 31.2443 9.28223 36.1302C10.253 41.0162 12.6508 45.5045 16.1724 49.0278C19.6939 52.5511 24.1811 54.9511 29.0666 55.9243C33.9521 56.8975 39.0164 56.4003 43.6193 54.4954C48.2222 52.5906 52.1569 49.3637 54.9259 45.2227C57.6949 41.0818 59.1739 36.2128 59.1759 31.2313C59.1713 24.5519 56.5167 18.1471 51.7948 13.4229C47.0729 8.69868 40.6695 6.04095 33.9901 6.03307Z" fill="white"/>
<path d="M62.2321 18.6025L61.9297 18.2084C61.962 18.1836 65.3999 15.5289 66.8351 14.126C68.0917 12.9065 67.1969 10.7277 67.0829 10.4823C65.7444 8.73238 62.1256 4.1617 61.206 3.63374C60.2145 3.0686 58.9231 3.63374 58.7645 3.71554L53.5915 7.40133L53.304 6.99731L58.534 3.27929C58.6009 3.24459 60.1798 2.47124 61.4563 3.19997C62.6634 3.88905 67.3035 9.94197 67.4993 10.1998L67.5266 10.2469C67.5786 10.3559 68.7659 12.9461 67.1796 14.4804C65.7172 15.9057 62.3734 18.4909 62.2321 18.6025Z" fill="white"/>
<path d="M7.89459 59.4262C7.13855 59.4131 6.39662 59.2193 5.7307 58.8611L5.67122 58.8165C5.49771 58.6306 1.41285 54.2483 0.319754 51.4647C-0.827873 48.5424 1.47977 46.9783 1.50208 46.9635L5.70096 43.8973L5.99096 44.2989L1.77722 47.37C1.68798 47.4319 -0.225555 48.7431 0.773351 51.2838C1.78713 53.8641 5.63651 58.058 6.00088 58.4472C6.24875 58.581 8.03587 59.4386 9.50573 58.4472C11.2111 57.2772 14.2375 54.9621 14.2697 54.9398L14.5697 55.334C14.5399 55.3563 11.5035 57.6788 9.78582 58.8561C9.22836 59.2347 8.56841 59.4337 7.89459 59.4262Z" fill="white"/>
<path d="M13.7889 30.8447L14.426 23.5797H16.1313L18.3497 28.423L20.4491 23.5797H22.0652L23.1559 30.8447H21.4183L20.935 26.2021L18.7959 30.8447H17.7449L15.7273 26.0806L15.1225 30.8447H13.7889Z" fill="white"/>
<path d="M23.8448 23.5797V30.7232H30.0787V29.464H25.7832V27.5951H29.003V26.2888H25.7584V24.8165H29.8209V23.5797H23.8448Z" fill="white"/>
<path d="M21.9139 31.8658V39.0119H28.1478V37.7502H23.8523V35.8838H27.0745V34.575H23.83V33.1052H27.89V31.8658H21.9139Z" fill="white"/>
<path d="M30.6141 29.4392L31.5015 28.599C31.8112 28.923 32.1886 29.1747 32.6068 29.3362C33.0249 29.4978 33.4736 29.5651 33.9207 29.5334C35.4079 29.3921 35.4079 28.6461 34.9816 28.2495C34.5552 27.8529 30.919 27.258 31.0157 25.6816C31.1123 24.1051 32.0666 23.369 34.1215 23.369C36.1763 23.369 36.6001 24.6777 36.6001 24.6777C36.6001 24.6777 36.4812 25.3544 35.455 25.3073C35.455 25.3073 34.4635 24.5141 33.6109 24.6529C32.7582 24.7917 32.2823 25.7039 32.8053 25.9369C33.3283 26.1699 36.6919 26.8961 36.7712 28.2024C36.8505 29.5086 36.4465 30.7554 34.4387 30.8446C32.431 30.9339 31.4643 30.3489 31.4643 30.3489C31.1146 30.1153 30.8236 29.804 30.6141 29.4392Z" fill="white"/>
<path d="M28.713 37.7676L29.6004 36.9248C29.9091 37.2495 30.286 37.5017 30.7039 37.6633C31.1217 37.8248 31.5702 37.8918 32.0171 37.8593C33.5043 37.7205 33.5043 36.9719 33.078 36.5753C32.6516 36.1787 29.0154 35.5963 29.1121 34.0074C29.2087 32.4186 30.163 31.6973 32.2179 31.6973C34.2727 31.6973 34.6965 33.0036 34.6965 33.0036C34.6965 33.0036 34.58 33.6802 33.5514 33.6331C33.5514 33.6331 32.5475 32.84 31.7073 32.9813C30.867 33.1225 30.3787 34.0322 30.9042 34.2652C31.4296 34.4982 34.7907 35.222 34.87 36.5282C34.9494 37.8345 34.5429 39.0813 32.5351 39.1705C30.5274 39.2597 29.5607 38.6748 29.5607 38.6748C29.2121 38.4416 28.9221 38.1311 28.713 37.7676Z" fill="white"/>
<path d="M43.766 37.7676L44.6534 36.9248C44.9627 37.2494 45.34 37.5015 45.7583 37.6631C46.1765 37.8246 46.6253 37.8916 47.0725 37.8593C48.5598 37.7205 48.5597 36.9719 48.1334 36.5753C47.7071 36.1787 44.0709 35.5963 44.1675 34.0074C44.2642 32.4186 45.2185 31.6973 47.2733 31.6973C49.3281 31.6973 49.752 33.0036 49.752 33.0036C49.752 33.0036 49.633 33.6802 48.6068 33.6331C48.6068 33.6331 47.6154 32.84 46.7627 32.9813C45.91 33.1225 45.4341 34.0322 45.9571 34.2652C46.4801 34.4982 49.8437 35.222 49.923 36.5282C50.0023 37.8345 49.5735 39.0813 47.5732 39.1631C45.5729 39.2449 44.5988 38.6673 44.5988 38.6673C44.2565 38.4345 43.9717 38.1268 43.766 37.7676Z" fill="white"/>
<path d="M41.1881 22.7914H41.9739L42.6951 21.4009H41.6715L41.1881 22.7914Z" fill="white"/>
<path d="M41.7286 23.4384C41.7286 23.4384 45.5457 23.2921 45.9423 26.8862C46.3389 30.4803 42.2615 30.8521 42.2615 30.8521C42.2615 30.8521 38.1667 31.3156 37.6189 27.6571C37.6164 27.6595 37.4752 23.7606 41.7286 23.4384ZM39.0739 27.1118C39.0739 28.5395 40.1447 29.5706 41.8773 29.5706C43.6099 29.5706 44.5617 28.7353 44.5022 26.8267C44.4427 24.9181 41.9417 24.6901 41.9417 24.6901C40.5859 24.6901 39.0739 25.684 39.0739 27.1118Z" fill="white"/>
<path d="M47.1742 30.8075V23.4384H49.11L52.6273 27.843V23.4384H54.1913V30.8075H52.6446L48.7035 25.8427V30.8075H47.1742Z" fill="white"/>
<path d="M35.9631 31.9154H37.5619V36.558C37.5619 36.558 37.6189 37.8767 39.3317 37.8767C41.0444 37.8767 41.2948 36.4043 41.2948 36.4043V31.9154H42.7944V36.8728C42.7944 36.8728 42.6828 39.173 39.3788 39.173C36.0747 39.173 35.9631 36.7191 35.9631 36.7191V31.9154Z" fill="white"/>
<path d="M19.2345 31.8658H20.749V39.52C20.5951 39.9976 20.2891 40.4117 19.8778 40.699C19.4665 40.9863 18.9724 41.1312 18.4711 41.1113C16.6269 41.1113 16.6121 39.9909 16.6121 39.9909L17.4672 39.3291C17.4672 39.3291 18.5603 40.3008 19.2469 39.3861L19.2345 31.8658Z" fill="white"/>
</g>
</g>
<defs>
<clipPath id="clip0_279_543">
<rect width="68" height="62" fill="white"/>
</clipPath>
<clipPath id="clip1_279_543">
<rect width="68" height="62.3015" fill="white"/>
</clipPath>
</defs>
</svg>
