<svg width="26" height="32" viewBox="0 0 26 32" fill="none" xmlns="http://www.w3.org/2000/svg">
<rect x="-0.315789" y="0.315789" width="23.3684" height="28.4211" rx="2.21053" transform="matrix(-1 0 0 1 25.3684 2.47363)" stroke="#A09693" stroke-width="0.631579"/>
<rect x="0.315789" y="0.789422" width="23.3684" height="28.4211" rx="2.21053" fill="#A09693" stroke="#A09693" stroke-width="0.631579"/>
<path d="M8.60794 10.2239L8.53977 10.563C8.53977 10.563 8.0921 12.6068 8.0921 13.6976C8.0921 15.7023 9.61879 17.358 11.5658 17.5785V19.3423H9.39473V20.2107H14.6053V19.3423H12.4342V17.5781C14.3812 17.358 15.9079 15.7023 15.9079 13.6976C15.9079 12.6051 15.4602 10.563 15.4602 10.563L15.392 10.2239H8.60794ZM9.327 11.0923H14.673C14.7138 11.3042 14.8172 11.8387 14.904 12.3949H9.82894V13.2634H15.0125C15.0256 13.4145 15.0395 13.5773 15.0395 13.6976C15.0395 15.3819 13.6843 16.737 12 16.737C10.3157 16.737 8.96052 15.3819 8.96052 13.6976C8.96052 12.9646 9.25058 11.4857 9.327 11.0923Z" fill="#0E0906"/>
</svg>
