<svg width="48" height="30" viewBox="0 0 48 30" fill="none" xmlns="http://www.w3.org/2000/svg">
<rect x="-0.315789" y="0.315789" width="23.3684" height="28.4211" rx="2.21053" transform="matrix(-1 0 0 1 47.3684 0.473633)" stroke="#A09693" stroke-width="0.631579"/>
<line x1="28.4211" y1="10.2631" x2="43.5789" y2="10.2631" stroke="#A09693" stroke-width="0.631579"/>
<line x1="28.4211" y1="14.6842" x2="43.5789" y2="14.6842" stroke="#A09693" stroke-width="0.631579"/>
<line x1="28.4211" y1="19.1051" x2="43.5789" y2="19.1051" stroke="#A09693" stroke-width="0.631579"/>
<rect x="0.315789" y="0.789422" width="23.3684" height="28.4211" rx="2.21053" stroke="#A09693" stroke-width="0.631579"/>
<path d="M8.60794 10.2236L8.53977 10.5628C8.53977 10.5628 8.0921 12.6066 8.0921 13.6973C8.0921 15.7021 9.61879 17.3577 11.5658 17.5783V19.3421H9.39473V20.2105H14.6053V19.3421H12.4342V17.5779C14.3812 17.3577 15.9079 15.7021 15.9079 13.6973C15.9079 12.6048 15.4602 10.5628 15.4602 10.5628L15.392 10.2236H8.60794ZM9.327 11.0921H14.673C14.7138 11.3039 14.8172 11.8385 14.904 12.3947H9.82894V13.2631H15.0125C15.0256 13.4142 15.0395 13.577 15.0395 13.6973C15.0395 15.3816 13.6843 16.7368 12 16.7368C10.3157 16.7368 8.96052 15.3816 8.96052 13.6973C8.96052 12.9644 9.25058 11.4854 9.327 11.0921Z" fill="#A09693"/>
</svg>
