<svg width="22" height="26" viewBox="0 0 22 26" fill="none" xmlns="http://www.w3.org/2000/svg">
<path d="M2.65306 11.2395C2.65306 11.1573 2.71274 11.0752 2.77221 10.9931C3.39833 9.67866 5.12712 8.66529 7.48224 8.17247C7.4525 8.03551 7.4525 7.92605 7.4525 7.7891C7.4525 7.37841 7.54192 6.96751 7.69101 6.61166C8.10834 5.65311 9.30066 5.13301 10.4633 5.43423C10.2844 2.61364 8.73426 1.35391 7.78044 0.861039C7.54193 0.724078 7.45252 0.450352 7.60161 0.231247C7.75071 0.0121475 8.04868 -0.069991 8.2872 0.0669701C9.42004 0.669427 11.298 2.14814 11.447 5.4617H11.5067C12.699 5.16046 13.9213 5.70811 14.3089 6.72148C14.4878 7.18699 14.5474 7.68003 14.5177 8.17285V8.22767C16.8726 8.74802 18.5719 9.73386 19.2277 11.0483C19.2874 11.1031 19.3171 11.1852 19.3469 11.2947C20.3009 13.5949 22 19.6195 22 21.4817C22 24.0283 17.29 25.9454 11 26C4.73984 25.9452 6.52974e-07 24.0283 6.52974e-07 21.4817C6.52974e-07 19.5642 1.69908 13.5397 2.65312 11.2394L2.65306 11.2395ZM13.355 6.96756C13.1761 6.50205 12.6694 6.22813 12.1327 6.22813C11.9836 6.22813 11.8942 6.25545 11.7451 6.28295C11.5066 6.33778 11.2383 6.36509 10.9701 6.36509H10.9106C10.6721 6.36509 10.4038 6.33778 10.1356 6.28295C9.45 6.11868 8.7642 6.39241 8.55564 6.94023C8.43649 7.21415 8.37681 7.5154 8.37681 7.7891C8.37681 8.44637 8.70473 9.07616 9.21149 9.51436C9.74797 9.95256 10.4635 10.1716 11.179 10.0895C12.3416 9.95257 13.2957 9.10369 13.385 8.06304C13.5337 7.65216 13.504 7.29608 13.3549 6.96756L13.355 6.96756ZM18.5718 12.0611C16.9621 13.1017 14.1002 13.7863 10.9701 13.8137C7.84 13.7863 4.97826 13.1017 3.36851 12.0611C2.86176 13.4029 2.26558 15.402 1.78856 17.3189C3.33875 18.8523 7.00536 19.9203 10.9701 19.9751C14.9647 19.9203 18.6314 18.8799 20.1815 17.3189C19.6748 15.4295 19.0786 13.403 18.5719 12.0611H18.5718ZM10.9701 25.0413C16.9322 24.9864 20.9268 23.1517 20.9268 21.454C20.9268 20.8788 20.718 19.7287 20.42 18.3869C18.4825 19.8931 14.9051 20.8514 10.9702 20.9063C7.03509 20.8515 3.45797 19.8931 1.5203 18.3869C1.19237 19.7288 1.01355 20.879 1.01355 21.454C1.01355 23.1517 5.00807 24.9864 10.9702 25.0413H10.9701Z" fill="#A09693"/>
</svg>
