<svg width="31" height="31" viewBox="0 0 31 31" fill="none" xmlns="http://www.w3.org/2000/svg">
<path d="M22.2813 10.0886L25.1875 7.18231L23.8177 5.8125L20.6276 9.00259C20.4459 9.18423 20.3438 9.43059 20.3438 9.6875V13.5625H13.4908L14.5981 29.0625H23.1832L24.2905 13.5625H22.2813V10.0886ZM21.3803 27.125H16.401L15.5717 15.5H22.2096L21.3803 27.125Z" fill="#A5281D"/>
<path d="M14.5312 0.96875H9.6875C9.43057 0.96875 9.18417 1.07081 9.00249 1.25249C8.82081 1.43417 8.71875 1.68057 8.71875 1.9375V9.07719C7.68509 9.66425 5.8125 11.1871 5.8125 14.5312V28.0938C5.8125 28.3507 5.91456 28.5971 6.09624 28.7788C6.27792 28.9604 6.52432 29.0625 6.78125 29.0625H11.625V27.125H7.75V14.5312C7.75 10.8946 10.6562 10.385 10.6562 10.385V2.90625H13.5625V9.6875H15.5V1.9375C15.5 1.68057 15.3979 1.43417 15.2163 1.25249C15.0346 1.07081 14.7882 0.96875 14.5312 0.96875Z" fill="#A5281D"/>
</svg>
