<svg width="26" height="26" viewBox="0 0 26 26" fill="none" xmlns="http://www.w3.org/2000/svg">
<path d="M1.95892 7.72067L7.72565 1.95394C7.80737 1.87222 7.84842 1.79032 7.84842 1.66775C7.84842 1.54498 7.80737 1.46327 7.72565 1.38137C3.51315 -2.83114 -2.82597 3.5489 1.38629 7.72072C1.54991 7.88434 1.79525 7.88434 1.95887 7.72072L1.95892 7.72067ZM4.57646 0.890629C5.39438 0.890629 6.21229 1.17682 6.86676 1.70855L5.06733 3.50798L3.88136 0.972378C4.08564 0.890663 4.33098 0.890663 4.57651 0.890663L4.57646 0.890629ZM3.0632 1.21768L4.41282 4.12139L4.12644 4.40777L1.22273 3.05815C1.54997 2.24023 2.20421 1.58579 3.0632 1.21768ZM0.977407 3.83522L3.51301 5.0212L1.6727 6.86169C0.977359 6.00276 0.77294 4.89848 0.977407 3.83522Z" fill="#A09693"/>
<path d="M25.9783 0.413017C25.9783 0.290327 25.8967 0.167829 25.8149 0.0859701C25.7333 0.0451363 25.6515 0.00430355 25.5699 0.00430355H25.5291C22.9558 -0.0365302 14.2556 0.126994 10.2528 4.41867C7.63853 4.50034 5.31024 5.89019 3.9214 8.09725C3.79879 8.30161 3.88059 8.54679 4.044 8.66949C5.0651 9.28258 6.20881 9.69127 7.3933 9.77312C6.78062 11.8169 6.49462 13.9423 6.33124 15.5364C4.20725 14.8007 1.79721 15.3729 0.122608 17.0078C0.040996 17.0894 0 17.1713 0 17.2938C0 17.4165 0.0408063 17.4982 0.122608 17.5798C2.20577 19.6644 4.45223 20.4002 6.37215 19.6236C5.63691 21.5446 6.37215 23.7928 8.41455 25.8773C8.49616 25.959 8.57796 26 8.70038 26C8.82299 26 8.9046 25.9592 8.98621 25.8773C10.661 24.2014 11.1918 21.79 10.4567 19.5826C12.5807 19.3783 15.3584 18.9695 17.8496 17.9886C17.5228 19.8688 17.8496 21.8307 18.8707 23.4658C18.9933 23.6702 19.2383 23.711 19.4426 23.5885C22.5468 21.7083 23.8948 17.9071 22.7103 14.4738C26.305 9.61034 26.0191 0.781053 25.9783 0.413017ZM25.2022 0.82173C25.2022 1.96621 25.1614 5.56314 24.2627 9.03751C20.3824 8.71047 17.319 5.68598 16.9922 1.76205C20.3416 0.903815 23.8134 0.82173 25.2022 0.82173ZM19.3614 22.6891C18.5037 21.095 18.3403 19.2148 18.8304 17.4571C18.8712 17.2935 18.8304 17.13 18.7078 17.0484C18.5852 16.9257 18.4219 16.9257 18.2585 16.9667C15.5219 18.2339 12.1722 18.6834 9.84412 18.8878C9.72152 18.8878 9.5991 18.9694 9.51729 19.0921C9.43568 19.2148 9.43568 19.3373 9.47649 19.46C10.2934 21.381 9.96675 23.5473 8.6596 25.0595C6.86243 23.0976 6.37217 21.0947 7.3525 19.46C7.47511 19.2148 7.43411 18.9694 7.27089 18.7651C7.14828 18.6424 7.02586 18.6015 6.86245 18.6015C6.78084 18.6015 6.65823 18.6424 6.57662 18.6832C4.94284 19.6233 2.94127 19.1738 0.980811 17.3752C2.53294 16.0672 4.69776 15.7404 6.57662 16.5578C6.69922 16.5986 6.82164 16.5986 6.94425 16.517C7.06685 16.4353 7.14847 16.3126 7.14847 16.1899C7.27108 14.4732 7.59771 11.9391 8.37378 9.56863C8.41458 9.44594 8.37378 9.32344 8.33297 9.20075C8.25136 9.07806 8.12875 9.03723 8.00614 9.03723C6.90325 9.03723 5.84133 8.75121 4.90188 8.21979C6.1682 6.38038 8.2104 5.3178 10.4977 5.27695C10.6203 5.27695 10.7019 5.23611 10.7835 5.15426C12.1314 3.64189 14.1328 2.7018 16.2161 2.04791C16.6246 6.21708 19.8922 9.44573 24.0586 9.89566C23.5684 11.4897 22.9149 13.0429 21.9755 14.2692C21.8938 14.3919 21.8528 14.5144 21.9347 14.6779C22.9966 17.5389 21.9346 20.8903 19.3614 22.6891Z" fill="#A09693"/>
<path d="M21.2748 4.44669C21.9291 4.44669 22.5017 3.91498 22.5017 3.21983C22.5017 2.56556 21.97 1.99298 21.2748 1.99298C20.6206 1.99298 20.048 2.52468 20.048 3.21983C20.048 3.91498 20.6206 4.44669 21.2748 4.44669ZM21.2748 2.81085C21.561 2.85171 21.6838 3.01533 21.6838 3.21981C21.6838 3.42428 21.4793 3.62876 21.2748 3.62876C20.9886 3.5879 20.8659 3.42428 20.8659 3.21981C20.8659 2.97428 21.0295 2.81085 21.2748 2.81085Z" fill="#A09693"/>
<path d="M20.6203 11.2357C19.6388 10.7448 18.5345 9.96779 17.553 9.02735L18.0028 8.57754C18.1664 8.41392 18.1664 8.16858 18.0028 8.00496C17.8392 7.84134 17.5938 7.84134 17.4302 8.00496L16.9804 8.41392C16.0397 7.4324 15.2218 6.32813 14.772 5.34657C14.6903 5.14209 14.4448 5.06037 14.2403 5.14209C14.0358 5.2238 13.9541 5.46933 14.0358 5.67379C14.5267 6.7372 15.4263 7.92322 16.4078 8.98648L14.8538 10.5406C14.1176 9.72265 13.4633 8.86371 13.0952 8.0458C13.0135 7.84132 12.768 7.7596 12.5635 7.84132C12.359 7.92303 12.2773 8.16856 12.359 8.37302C12.768 9.27283 13.4633 10.2135 14.2812 11.0723L12.768 12.5855C12.3182 12.0946 11.95 11.5631 11.7046 11.0723C11.6228 10.8678 11.3773 10.7861 11.1729 10.8678C10.9684 10.9495 10.8867 11.195 10.9684 11.3995C11.2546 11.9721 11.6637 12.5855 12.1952 13.1172L10.682 14.6305C10.5184 14.4669 10.3958 14.2624 10.3139 14.0988C10.2322 13.8943 9.98664 13.8126 9.78217 13.8943C9.5777 13.976 9.49598 14.2215 9.5777 14.426C9.70046 14.6713 9.86389 14.9577 10.1094 15.203L9.70044 15.612C9.53683 15.7756 9.53683 16.021 9.70044 16.1846C9.86406 16.3482 10.1094 16.3482 10.273 16.1846L10.682 15.7756C10.9273 15.9801 11.2137 16.1846 11.459 16.3073C11.6635 16.389 11.9088 16.3073 11.9907 16.1028C12.0724 15.8984 11.9907 15.653 11.7862 15.5711C11.6226 15.4894 11.4182 15.3667 11.2137 15.203L12.7269 13.6898C13.2995 14.2215 13.9129 14.6713 14.4855 14.9166C14.69 14.9984 14.9353 14.9166 15.0172 14.7122C15.0989 14.5077 15.0172 14.2624 14.8127 14.1805C14.3218 13.9351 13.7903 13.567 13.2994 13.1171L14.8127 11.6038C15.6715 12.4217 16.6532 13.1171 17.5528 13.5669C17.7573 13.6486 18.0026 13.5669 18.0845 13.3624C18.1662 13.1579 18.0845 12.9126 17.8801 12.8307C17.0621 12.4626 16.2032 11.8083 15.3853 11.0313L16.9394 9.47717C18.0028 10.4996 19.1477 11.3585 20.2112 11.8492C20.4157 11.9309 20.661 11.8492 20.7429 11.6447C20.9067 11.563 20.8248 11.3176 20.6203 11.2357Z" fill="#A09693"/>
</svg>
