<svg width="44" height="41" viewBox="0 0 44 41" fill="none" xmlns="http://www.w3.org/2000/svg">
<g opacity="0.15">
<path d="M22.2535 39.5943C11.5281 39.5943 2.8335 30.9547 2.8335 20.2971C2.8335 9.63962 11.5281 1 22.2535 1C32.9789 1 41.6736 9.63962 41.6736 20.2971C41.6736 30.9547 32.9789 39.5943 22.2535 39.5943Z" stroke="#A09693" stroke-miterlimit="10"/>
<path d="M22.2225 36.1434C13.4409 36.1434 6.32202 29.0696 6.32202 20.3436C6.32202 11.6176 13.4409 4.54376 22.2225 4.54376C31.004 4.54376 38.1229 11.6176 38.1229 20.3436C38.1229 29.0696 31.004 36.1434 22.2225 36.1434Z" stroke="#A09693" stroke-miterlimit="10"/>
<path d="M9.99731 5.33297L6.7269 3.02722C6.7269 3.02722 5.77692 2.5475 5.0294 2.9808C4.29745 3.39862 1.2762 7.31375 1.2762 7.31375C1.2762 7.31375 0.544256 8.89219 1.46309 9.77425C2.38192 10.6718 4.5622 12.3276 4.5622 12.3276" stroke="#A09693" stroke-miterlimit="10"/>
<path d="M39.8983 28.375L42.5458 30.2939C42.5458 30.2939 43.9162 31.1914 43.231 32.9246C42.5458 34.6578 39.8983 37.4587 39.8983 37.4587C39.8983 37.4587 38.6057 38.2015 37.5155 37.4587C36.4254 36.7159 34.5099 35.2613 34.5099 35.2613" stroke="#A09693" stroke-miterlimit="10"/>
</g>
</svg>
