<svg width="32" height="30" viewBox="0 0 32 30" fill="none" xmlns="http://www.w3.org/2000/svg">
<path d="M13.3913 20.6061C12.8319 18.5774 12.0488 16.9545 11.2097 15.7952C10.4266 14.8099 9.25188 14.2882 7.85343 13.7086C4.49713 12.3755 3.43431 9.12956 3.88181 6.46297C3.88181 6.40501 3.93775 6.28908 3.93775 6.17316C3.37837 7.15852 3.04274 8.37572 3.15461 9.65089C3.26649 11.9114 4.55307 13.7083 6.62278 14.5777C8.18905 15.2153 9.58751 15.8529 10.5385 17.128C11.5453 18.4032 12.3285 20.258 12.9997 22.5185C13.7829 25.3587 16.0204 27.4453 18.8173 27.909C21.2227 28.3148 23.5721 27.5033 25.1383 25.6485C24.0196 26.344 22.6771 26.6918 21.3345 26.6918C17.5867 26.6338 14.4545 24.1994 13.3913 20.6058V20.6061Z" fill="#A5281D"/>
<path d="M25.1946 8.20217C20.8314 4.14481 15.9645 2.05817 10.7626 2.05817H9.92348C8.13346 2.11613 6.90282 2.9276 6.06374 3.97092C6.06374 3.97092 6.06374 4.02888 6.00781 4.02888C5.39249 4.84036 5.00092 5.76775 4.88904 6.63719C4.55341 8.66587 5.22467 11.4481 8.1894 12.6073C9.69973 13.1869 11.0982 13.8245 12.0491 15.0417C13.0001 16.2589 13.8392 17.9978 14.4545 20.2004C15.5173 23.852 18.6498 25.417 21.2789 25.417C23.5165 25.417 25.4743 24.3737 26.8168 22.4609L26.9846 22.229C29.8934 17.9398 29.1662 11.8541 25.1946 8.20217ZM24.859 20.838L24.7471 21.0118C23.6283 22.5768 22.118 22.8087 21.3349 22.8087C19.6567 22.8087 17.643 21.7653 16.9717 19.4469C16.2445 16.8965 15.2936 14.8678 14.1188 13.3608C12.7763 11.6219 10.9863 10.8105 9.19628 10.1149C7.29439 9.36142 7.40626 7.56458 7.51814 7.04292C7.63001 6.52126 8.02158 4.78239 10.0913 4.72443H10.8185C15.3495 4.72443 19.6567 6.57923 23.5724 10.1729C26.4812 12.9551 27.0406 17.5338 24.859 20.838Z" fill="#A5281D"/>
<path d="M21.4464 15.1577C20.2158 15.1577 19.2089 16.201 19.2089 17.4761C19.2089 18.7513 20.2158 19.7946 21.4464 19.7946C22.677 19.7946 23.6839 18.7513 23.6839 17.4761C23.6839 16.2589 22.677 15.1577 21.4464 15.1577Z" fill="#A5281D"/>
</svg>
