<svg width="34" height="34" viewBox="0 0 34 34" fill="none" xmlns="http://www.w3.org/2000/svg">
<path d="M29.0208 4.97923C25.8099 1.76832 21.5411 0 17 0C12.4589 0 8.1896 1.76839 4.97923 4.97923C1.76832 8.19014 0 12.4589 0 17C0 21.5411 1.76839 25.8104 4.97923 29.0208C8.19014 32.2317 12.4589 34 17 34C21.5411 34 25.8104 32.2316 29.0208 29.0208C32.2317 25.8099 34 21.5411 34 17C34 12.4589 32.2316 8.1896 29.0208 4.97923ZM26.4461 28.1806C26.3638 28.0063 26.3148 27.8275 26.3014 27.6472C26.2692 27.217 26.53 26.6539 27.0362 26.0618C27.7161 25.2654 28.6771 24.6074 29.8305 24.1435C29.7508 24.9726 29.2032 26.1894 28.3301 27.029C27.8098 27.5302 27.0784 27.9735 26.4461 28.1806ZM25.7066 27.6915C25.7221 27.8993 25.7703 28.1038 25.8492 28.3028C25.6348 28.3135 25.4673 28.2752 25.3705 28.1877C24.9168 27.7769 25.4387 26.0697 26.3504 24.9825C27.1851 23.9867 28.4504 23.3353 29.1917 23.2813C29.2232 23.2789 29.257 23.2773 29.2918 23.2773C29.4289 23.2773 29.5823 23.3001 29.678 23.3853C29.7194 23.422 29.7495 23.471 29.7726 23.524C28.4567 24.0263 27.3576 24.766 26.5824 25.6738C25.9648 26.397 25.6618 27.0948 25.7066 27.6914L25.7066 27.6915ZM30.4224 23.6748C30.4224 23.6743 30.4221 23.6738 30.4221 23.6732C30.4221 23.6724 30.4218 23.6714 30.4216 23.6706C30.3807 23.3545 30.264 23.1086 30.0742 22.94C29.853 22.7429 29.5416 22.658 29.1481 22.6865C28.1449 22.7599 26.7456 23.5823 25.8932 24.5996C24.9246 25.7546 24.1049 27.8467 24.9699 28.63C25.1694 28.8106 25.4444 28.902 25.7804 28.902C25.9605 28.902 26.1582 28.8758 26.371 28.8229C26.3736 28.8221 26.3765 28.8213 26.3792 28.8205C26.3802 28.8203 26.3813 28.82 26.3823 28.8197C26.4746 28.7967 26.5687 28.7689 26.6644 28.7366C24.0351 30.9063 20.667 32.2109 16.9997 32.2109C16.1417 32.2109 15.2838 32.1389 14.4483 31.9976C13.4711 31.4788 12.9114 30.4743 13.1146 29.5938C13.2506 29.004 13.7458 28.3382 14.4289 28.206C14.6145 28.1704 14.8069 28.1746 15.0027 28.2176C15.1348 28.4407 15.2677 28.6829 15.4075 28.9576C15.8617 29.8485 16.2442 30.7851 16.5436 31.7417C16.5826 31.8665 16.6982 31.9509 16.828 31.9509C16.8327 31.9509 16.8377 31.9509 16.8424 31.9506C16.9779 31.944 17.092 31.8471 17.12 31.7142C17.2007 31.3312 17.2815 30.9485 17.3617 30.5655C17.5093 30.7558 17.6563 30.9464 17.8036 31.1369C17.8818 31.2379 18.0152 31.278 18.136 31.2368C18.2569 31.1957 18.3379 31.0822 18.3379 30.9545V28.1331C19.1303 28.5751 20.0312 28.799 20.8968 28.799C21.8463 28.799 22.7527 28.5305 23.4246 27.9887C23.9751 27.5444 24.3751 26.9278 24.6137 26.1567C24.6145 26.1543 24.6147 26.1517 24.6155 26.1493C24.6171 26.1441 24.6181 26.1388 24.6194 26.1336C24.621 26.1265 24.6223 26.1194 24.6234 26.1124C24.6241 26.1074 24.6247 26.1021 24.6252 26.0972C24.626 26.0898 24.6262 26.0822 24.6265 26.0749C24.6265 26.0699 24.6268 26.0649 24.6265 26.0602C24.6262 26.0523 24.6257 26.0445 24.6247 26.0366C24.6244 26.0335 24.6244 26.0306 24.6239 26.0274C24.6236 26.0259 24.6231 26.0245 24.6228 26.023C24.6215 26.0146 24.6197 26.0067 24.6179 25.9986C24.6168 25.9944 24.616 25.9902 24.615 25.9863C24.6126 25.9776 24.6095 25.9692 24.6061 25.9611C24.6048 25.9577 24.6037 25.9543 24.6024 25.9511C24.5977 25.9401 24.5922 25.9291 24.5861 25.9189C24.5859 25.9186 24.5859 25.9184 24.5856 25.9181C24.5796 25.9079 24.5728 25.8979 24.5654 25.8882C24.5652 25.8877 24.5646 25.8872 24.5644 25.8869C24.5641 25.8867 24.5639 25.8861 24.5636 25.8859C23.9442 25.0754 22.8461 23.9786 21.1307 23.3523C20.223 23.0213 19.2703 22.8711 18.2944 22.9038C18.1693 22.0996 17.9903 21.3231 17.7599 20.5928C17.3389 19.2577 16.7428 18.0763 16.0363 17.1762C15.7034 16.7507 15.3469 16.3892 14.9724 16.093C15.4426 15.899 15.7302 15.5268 15.7533 15.1661C15.7643 14.986 15.7124 14.8023 15.6047 14.6285C15.7625 14.4646 15.8516 14.2361 15.8382 13.9878L15.838 13.9844C15.8248 13.7375 15.705 13.5097 15.5087 13.3595C15.3116 13.2088 15.0589 13.1524 14.8138 13.2048C14.6859 13.2331 14.5776 13.2604 14.4738 13.2905C13.9165 13.4499 13.5637 13.6512 13.2798 13.8127C12.9826 13.982 12.8046 14.0832 12.5251 14.0783C12.2127 14.0717 11.8787 13.9349 11.6522 13.7196C11.5649 13.6376 11.4944 13.5443 11.443 13.4431C11.3911 13.3398 11.3578 13.2271 11.3437 13.1055C11.3287 12.9857 11.3332 12.8609 11.357 12.7317C11.3691 12.6635 11.3875 12.593 11.4121 12.5212C11.4527 12.4019 11.5091 12.2858 11.5788 12.1744L12.209 13.5283C12.2423 13.6001 12.3031 13.6557 12.3775 13.683C12.4103 13.695 12.4449 13.7008 12.4792 13.7008C12.5228 13.7008 12.566 13.6914 12.6059 13.6725C14.2321 12.9097 15.3103 11.27 15.3729 9.47914C15.5824 9.14124 15.7753 8.81174 15.9596 8.47543C16.0817 8.25261 16.1601 8.10084 16.217 7.99021C16.2699 7.88719 16.3051 7.8193 16.346 7.75036C16.6133 7.2953 17.0786 6.90972 17.729 6.60486C17.8511 6.54745 17.9198 6.41533 17.8959 6.28217C17.8723 6.14926 17.762 6.04886 17.6275 6.03734L16.8243 5.96918L17.6031 5.02815C17.6854 4.9288 17.6943 4.78751 17.6251 4.6782C17.5559 4.56915 17.4246 4.51673 17.2993 4.54897L13.3725 5.55375C11.9818 4.61715 10.1875 4.47401 8.65563 5.18624C8.58381 5.21953 8.52823 5.28008 8.50123 5.35453C8.47423 5.42898 8.47764 5.51076 8.51119 5.58258L9.35371 7.39264C8.6142 7.66028 7.9573 8.10249 7.43776 8.68444C7.43671 8.68549 7.43592 8.68654 7.43487 8.68759C7.43304 8.68968 7.43094 8.69178 7.42911 8.69388C7.4278 8.69545 7.42596 8.6965 7.42439 8.69807C6.73239 9.47818 6.33995 10.4546 6.31948 11.4471C6.31398 11.7016 6.33337 11.9598 6.37741 12.2141C6.37768 12.2159 6.3782 12.2175 6.37846 12.2191C6.37899 12.222 6.37951 12.2251 6.3803 12.228C6.55619 13.2398 7.10692 14.1756 7.93294 14.8656C7.93372 14.8661 7.93425 14.8667 7.93477 14.8675C7.93713 14.8693 7.93897 14.8714 7.94133 14.8732C8.45301 15.2997 9.04885 15.6111 9.68925 15.7915C9.43577 15.9653 9.21609 16.1716 9.0347 16.4107C8.71699 16.8298 8.52249 17.3331 8.45223 17.908C7.83412 18.1766 7.4443 18.6967 7.24828 18.9594C5.87078 20.8037 7.36204 24.8223 8.37365 27.0531C8.63264 27.6251 9.21141 27.9931 9.83583 27.9931C9.86991 27.9931 9.90399 27.9921 9.93833 27.9897C10.3218 27.9658 10.6846 27.8046 10.9602 27.5357C11.2359 27.2665 11.4055 26.9073 11.4375 26.5257C11.4472 26.4129 11.4564 26.2966 11.4648 26.1781C11.5576 24.9248 11.5922 23.5022 11.5547 22.4649C11.5214 21.5365 11.4304 20.6017 11.2862 19.6847C11.4186 19.679 11.5431 19.6852 11.6566 19.7065C11.6601 19.7073 11.6637 19.7078 11.6674 19.7083C11.7885 19.733 11.8999 19.7733 11.9995 19.8297C12.0742 19.8714 12.1379 19.918 12.1956 19.9731C12.5482 20.3089 12.6064 20.9052 12.6572 21.8455C12.6572 21.8463 12.6569 21.847 12.6569 21.8478C12.6569 21.8502 12.6577 21.8526 12.6577 21.8549C12.658 21.8575 12.658 21.8602 12.6583 21.8628L12.6627 21.9459C12.7227 23.0823 12.7975 24.4965 13.5663 26.0347C13.6581 26.2184 13.7446 26.372 13.8242 26.5036C13.5582 26.5702 13.2995 26.6667 13.052 26.793C12.0577 27.3026 11.3544 28.2314 11.1704 29.2775C11.0611 29.9014 11.1376 30.5413 11.384 31.1386C6.2677 29.1107 2.68167 24.4901 1.9341 19.1011C1.93594 19.1048 1.93777 19.1087 1.93961 19.1126C2.54278 20.2778 3.84375 21.6129 4.86713 21.6129C5.01942 21.6129 5.1657 21.5832 5.30253 21.519C5.67266 21.3455 5.9196 20.9316 6.01762 20.321C6.01919 20.314 6.0205 20.3069 6.02181 20.2996C6.14423 19.5064 6.00871 18.4405 5.67711 17.5844C5.14393 16.21 3.86812 14.861 2.83401 14.5774C2.83349 14.5771 2.83322 14.5771 2.8327 14.5771C2.83165 14.5769 2.83086 14.5766 2.82982 14.5763C2.52207 14.4919 2.24998 14.5048 2.02112 14.6146C2.00434 14.6227 1.98861 14.6327 1.9721 14.6419C3.10875 7.37022 9.41487 1.78831 16.9999 1.78831C18.525 1.78831 20.0215 2.01243 21.4617 2.45387C20.9911 2.63789 20.5476 2.88534 20.1505 3.18835C19.097 3.99128 18.5758 4.99653 18.3245 5.69853C18.2841 5.81177 18.2469 5.92239 18.2141 6.02672C18.1268 6.30354 18.0822 6.49961 18.0427 6.67262C17.9711 6.9864 17.9239 7.19348 17.6573 7.68761C17.4979 7.98329 17.3317 8.22787 17.185 8.44363C16.8769 8.89633 16.6111 9.28742 16.7949 9.72308C16.8814 9.92911 17.1026 10.2062 17.6633 10.3567C17.7705 10.3863 17.8743 10.4023 17.9726 10.4086C17.7315 10.6993 17.4568 10.9797 17.1498 11.2466C17.0418 11.3404 17.0158 11.498 17.0879 11.6217C17.16 11.7454 17.3099 11.8005 17.4449 11.7528L18.5978 11.3457C18.9245 11.2303 19.2511 11.1147 19.5777 10.9994L19.0692 12.6301C19.0291 12.7591 19.0802 12.8988 19.1945 12.9709C19.2435 13.0018 19.2988 13.017 19.3539 13.017C19.4267 13.017 19.4996 12.9903 19.556 12.9381C20.1641 12.3774 20.815 12.0105 21.49 11.8471C21.6805 11.801 21.8606 11.774 22.0347 11.7475C22.4195 11.6893 22.8174 11.6293 23.2796 11.3698C23.6631 11.154 23.9994 10.8529 24.282 10.4736L25.0407 10.6783C24.7638 10.8812 24.4962 11.0969 24.2427 11.3268C23.7588 11.7664 23.3158 12.2577 22.926 12.7867C22.8536 12.885 22.8484 13.0176 22.9129 13.1211C22.9774 13.2249 23.0987 13.2787 23.2188 13.2572L24.6768 12.9953L24.5531 13.3793C24.519 13.4855 24.5468 13.6019 24.6254 13.6811C24.7041 13.7602 24.8202 13.7888 24.9266 13.7552C25.2567 13.6512 25.5995 13.5985 25.9463 13.5985C26.7186 13.5985 27.4672 13.8643 28.0539 14.3469C28.1309 14.4106 28.2007 14.473 28.267 14.5387C28.4722 14.7403 28.6489 14.9498 28.792 15.16C29.0332 15.5162 29.1679 15.8646 29.181 16.1674C29.1863 16.2875 29.1724 16.4004 29.1401 16.5027C29.1194 16.568 29.0906 16.6298 29.0515 16.6927C28.9391 16.876 28.7462 17.0484 28.4898 17.1981C28.0827 16.8482 27.6166 16.5433 27.1581 16.3294C25.9384 15.7588 24.2856 15.6321 23.289 16.0031C23.4461 14.9847 23.1679 13.8742 22.4683 12.9987C22.2995 12.7869 22.0466 12.6655 21.7742 12.6655C21.5102 12.6655 21.2607 12.7809 21.089 12.9825C20.8106 13.3104 20.8003 13.7833 21.0643 14.1065C21.6428 14.8169 21.7155 15.7912 21.2371 16.4235C20.8195 16.9768 19.9993 17.2091 19.2855 16.9758C18.7476 16.7999 18.4249 16.3884 18.249 16.0743C18.0949 15.7985 17.7995 15.6271 17.4781 15.6271C17.3879 15.6271 17.2991 15.6402 17.2154 15.6659C16.9538 15.7453 16.7454 15.9361 16.6437 16.1899C16.5428 16.4418 16.5614 16.7218 16.6948 16.9577C17.028 17.5467 17.6511 18.3231 18.7274 18.6757C19.0915 18.7955 19.4719 18.8561 19.8578 18.8561H19.858C20.9115 18.8553 21.904 18.4055 22.5504 17.6447C22.5535 17.6515 22.5559 17.6584 22.5593 17.6652C22.9882 18.5745 24.2582 19.585 25.5138 20.0157C26.0926 20.2144 26.8067 20.3347 27.4788 20.3347C28.4625 20.3347 29.3572 20.0771 29.6073 19.4299C29.6458 19.33 29.6668 19.2238 29.6707 19.1129C30.1392 19.0461 30.7421 18.8791 31.3497 18.487C31.4832 18.4012 31.6124 18.3064 31.7448 18.197C31.745 18.1968 31.7453 18.1965 31.7456 18.1963C31.7471 18.1949 31.7487 18.1939 31.7503 18.1923C31.9065 18.0626 32.0541 17.9205 32.1907 17.7682C32.0759 20.0582 31.4517 22.2158 30.4302 24.1312C30.443 23.9703 30.4412 23.8161 30.4226 23.6738L30.4224 23.6748ZM12.2177 31.4437C11.7991 30.8096 11.6358 30.0814 11.7579 29.3825C11.9097 28.5196 12.4953 27.7508 13.3237 27.3259C13.5971 27.1864 13.8865 27.0899 14.1871 27.038C14.2278 27.0926 14.2686 27.1466 14.3109 27.2021C14.4029 27.3235 14.4967 27.4472 14.5963 27.588C14.5022 27.5922 14.4086 27.6024 14.3161 27.6202C13.3391 27.809 12.7071 28.706 12.5334 29.4593C12.3554 30.23 12.6117 31.0649 13.1706 31.7239C12.8503 31.6413 12.532 31.5475 12.2177 31.4437ZM11.1506 19.0961C11.121 19.0159 11.0864 18.9378 11.0471 18.8626C11.0468 18.862 11.0468 18.8618 11.0465 18.8613C11.0463 18.8607 11.046 18.8602 11.0457 18.8597C10.9212 18.618 10.7487 18.4007 10.5427 18.2232C10.5139 17.8604 10.5154 17.4929 10.5511 17.128C10.5915 16.7202 10.6727 16.3149 10.7928 15.9215C11.5037 15.7002 12.2471 15.7191 12.6506 15.7542C12.3761 16.0874 12.1431 16.4491 11.9564 16.8358C11.6209 17.5317 11.4379 18.3037 11.4203 19.0873C11.3325 19.0854 11.2426 19.0883 11.1506 19.0961ZM7.01859 12.3627C7.56383 12.1944 8.32952 12.067 9.20948 12.2329C9.75551 12.3359 10.2711 12.5375 10.7456 12.8308V12.8316C10.3398 12.8345 9.76861 12.9116 9.18043 13.229C8.66665 13.5056 8.312 13.8686 8.07498 14.1908C7.55124 13.6781 7.18528 13.0445 7.01859 12.3627ZM15.9572 6.3341C16.0002 6.43659 16.0964 6.50658 16.207 6.51576L16.6521 6.5535C16.3024 6.81617 16.0285 7.11526 15.8332 7.44736C15.7839 7.53072 15.7435 7.60883 15.6877 7.71736C15.629 7.83112 15.5561 7.97294 15.4376 8.18894C15.3907 8.27439 15.3433 8.35959 15.2953 8.44452C15.2117 8.00754 15.0651 7.58576 14.8588 7.196C14.6287 6.76033 14.3212 6.36214 13.9576 6.02057L16.5603 5.35448L16.0028 6.02816C15.9317 6.11388 15.9142 6.2316 15.9572 6.3341ZM13.1424 6.11941C13.1424 6.11941 13.1427 6.11941 13.1427 6.11968C13.647 6.48063 14.0468 6.93676 14.3314 7.47516C14.6374 8.05317 14.7928 8.7132 14.7807 9.384C14.7553 10.8821 13.917 12.2688 12.62 12.9957L12.2905 12.2876C13.2008 11.7206 13.8012 10.7358 13.8816 9.64954C13.8816 9.64875 13.8819 9.64823 13.8819 9.64744C13.8824 9.64141 13.8832 9.63538 13.8837 9.62936C13.9223 9.07075 13.8187 8.50667 13.5841 7.99807C13.4365 7.67695 13.2391 7.38257 12.9977 7.12253C12.518 6.60665 11.8711 6.24518 11.1767 6.10493C10.5989 5.98775 10.0109 6.02209 9.45886 6.2027L9.18362 5.61106C10.5 5.10907 11.9919 5.29414 13.1424 6.11934L13.1424 6.11941ZM15.0787 14.2728C14.987 14.2996 14.9146 14.3224 14.8449 14.3468C14.5886 14.4356 14.3377 14.5465 14.0999 14.6763C13.9555 14.7552 13.9023 14.9363 13.9812 15.081C14.0354 15.1801 14.1376 15.2362 14.2433 15.2362C14.2915 15.2362 14.3405 15.2244 14.3859 15.1995C14.5946 15.0855 14.8145 14.9882 15.0399 14.9101C15.0496 14.9067 15.0596 14.9033 15.0695 14.9001C15.1304 14.9822 15.1629 15.0627 15.1589 15.1284C15.1456 15.34 14.809 15.6223 14.2795 15.6317C13.9647 15.4606 13.6402 15.3334 13.3143 15.2551C13.3106 15.2543 13.307 15.2535 13.3033 15.2527C13.303 15.2527 13.3025 15.2524 13.302 15.2524C13.2087 15.2302 13.1114 15.211 13.0115 15.1956C12.7106 15.1505 11.6775 15.0322 10.657 15.3392C10.6937 15.1164 10.7873 14.8267 11.0193 14.5761C11.1278 14.4587 11.256 14.3617 11.4012 14.286C11.7182 14.5237 12.1203 14.6666 12.5137 14.6747C12.9567 14.6844 13.2577 14.5124 13.5762 14.331C13.8454 14.1777 14.1508 14.0036 14.6404 13.8637C14.7324 13.8369 14.8286 13.8125 14.9416 13.7876C15.0404 13.7661 15.113 13.807 15.1471 13.8333C15.1807 13.8589 15.2378 13.9169 15.2436 14.023L15.2438 14.0267C15.2501 14.1397 15.1807 14.2432 15.0787 14.2728ZM10.3805 26.1446C9.85674 26.0322 9.31075 24.7574 9.1099 23.1793C8.8648 21.2508 9.17805 19.6051 9.85491 19.266C10.0379 19.1742 10.2772 19.1671 10.5674 19.2442C10.6009 19.3236 10.6279 19.4059 10.6473 19.4906C10.6481 19.494 10.6489 19.4974 10.65 19.5008C10.6562 19.5252 10.662 19.552 10.667 19.5852C10.8261 20.542 10.9244 21.5185 10.9593 22.4879C10.9944 23.4667 10.964 24.7981 10.8801 25.996C10.6851 26.1236 10.5173 26.1743 10.3805 26.1446ZM9.71336 6.75021C10.0481 6.65034 10.3972 6.61522 10.7472 6.64667L10.3682 8.15764L9.71336 6.75021ZM11.2015 9.94797L11.1058 9.74245L12.7736 7.79167C12.8771 7.93506 12.9681 8.08683 13.0422 8.24805C13.2058 8.60272 13.291 8.98991 13.2939 9.3794L11.2015 9.94797ZM10.8293 9.14819L10.7679 9.01634L11.3336 6.76096C11.7163 6.87997 12.0726 7.08024 12.3709 7.34447L10.8293 9.14819ZM13.2246 10.0164C13.065 10.7228 12.638 11.3457 12.0367 11.7426L11.4568 10.497L13.2246 10.0164ZM11.294 11.5609C11.2321 11.6328 11.1747 11.7075 11.1223 11.7848C10.8615 11.3402 10.5603 10.9213 10.2221 10.5347C9.62551 9.85314 8.92509 9.27905 8.13659 8.82373C8.55627 8.43052 9.05588 8.12884 9.60743 7.93692L11.294 11.5609ZM8.82367 18.4045C8.82498 18.4039 8.82629 18.4037 8.8276 18.4034C8.82786 18.4034 8.82786 18.4034 8.82812 18.4031C8.91777 18.3743 9.01162 18.3541 9.10651 18.3434C9.15028 18.3387 9.19432 18.336 9.24124 18.3355H9.25723C9.54506 18.3355 9.82266 18.428 10.062 18.6024C9.89132 18.6178 9.73274 18.66 9.58804 18.7326C8.44696 19.3044 8.29885 21.5259 8.51849 23.2545C8.71431 24.7953 9.27371 26.5167 10.2549 26.7275C10.3222 26.7422 10.3907 26.7493 10.4601 26.7493C10.5707 26.7493 10.6845 26.7301 10.8001 26.6932C10.7506 26.8494 10.6638 26.993 10.5443 27.1097C10.371 27.2788 10.1429 27.3802 9.90126 27.3954C9.48367 27.4222 9.08913 27.1862 8.91801 26.808C8.31694 25.4818 6.45393 21.0219 7.72768 19.3169C7.9193 19.06 8.27606 18.5819 8.82366 18.4046L8.82367 18.4045ZM14.5099 18.1507C14.8782 17.9494 15.2717 17.7958 15.6824 17.6935C16.1957 18.384 16.6434 19.2393 16.9968 20.2001C16.5139 20.0717 15.9094 20.003 15.2274 20.1275C14.3149 20.2945 13.6441 20.7461 13.2084 21.143C13.1573 20.6012 13.0545 20.1084 12.7756 19.7338C13.2304 19.069 13.8259 18.5243 14.5099 18.1507ZM18.2138 27.3503C17.9289 27.1461 17.6772 26.9118 17.4657 26.6538C17.0382 26.1317 16.8088 25.5544 16.6906 25.0189C16.8995 25.3348 17.1637 25.6714 17.4935 25.9906C18.0374 26.5175 18.6699 26.9112 19.3759 27.1618C19.4422 27.1849 19.5305 27.2148 19.6241 27.2423C20.0241 27.3621 20.4341 27.4334 20.8425 27.4544C20.9316 27.4591 21.021 27.4612 21.1104 27.4612C21.5597 27.4612 22.0129 27.4027 22.4615 27.2871C22.4625 27.2869 22.4636 27.2866 22.4646 27.2863H22.4651C22.4654 27.2863 22.4654 27.2863 22.4654 27.2861C22.9312 27.165 23.3336 26.9975 23.6579 26.8339C23.4885 27.1026 23.2867 27.3346 23.051 27.5246C21.839 28.5018 19.7143 28.4256 18.2139 27.3503L18.2138 27.3503ZM23.6953 26.1343C23.4266 26.2918 23.0494 26.4806 22.5944 26.6268L22.317 25.6103C22.7794 25.7789 23.2403 25.9537 23.6953 26.1343ZM21.6323 25.3675L22.0166 26.776C21.7299 26.8318 21.4423 26.8612 21.1563 26.864V25.2058C21.316 25.259 21.4745 25.313 21.6323 25.3675ZM20.5597 26.8305C20.3154 26.8006 20.0714 26.7506 19.8307 26.6806L20.2727 24.9188C20.3689 24.9489 20.4643 24.9796 20.5597 25.0103L20.5597 26.8305ZM19.2671 26.4764C18.8632 26.2994 18.4888 26.0656 18.1483 25.7778L19.4081 24.6556C19.5056 24.6842 19.6031 24.713 19.7019 24.7429L19.2671 26.4764ZM17.7155 25.3642C17.2526 24.8622 16.9551 24.3339 16.7813 23.9607C17.4337 24.114 18.0852 24.2818 18.7289 24.4611L17.7155 25.3642ZM21.9771 24.8554C21.6397 24.7377 21.2942 24.621 20.9508 24.5088C20.7466 24.442 20.5406 24.377 20.3332 24.3119C20.286 24.297 20.2391 24.2826 20.1922 24.2682L20.1479 24.2545C19.9015 24.1788 19.6553 24.1051 19.4163 24.0362C18.8281 23.865 18.2307 23.7051 17.6309 23.5546C17.7735 23.5363 17.9166 23.5219 18.0606 23.5119C19.0486 23.444 20.013 23.5788 20.927 23.9122C21.9045 24.269 22.6637 24.7922 23.2364 25.3162C22.8191 25.1573 22.3984 25.0032 21.9771 24.8554ZM15.3343 20.7142C16.1446 20.5663 16.8335 20.7493 17.2322 20.9045C17.4293 21.5527 17.5863 22.2371 17.6985 22.9462C17.1905 23.0018 16.6906 23.1059 16.2085 23.2579C16.1941 23.2624 16.18 23.2679 16.1666 23.2744C16.1627 23.2763 16.159 23.2786 16.1553 23.2805C16.1469 23.2849 16.1386 23.2896 16.1307 23.2949C16.1262 23.2978 16.122 23.3009 16.1178 23.3043C16.111 23.3093 16.1045 23.3148 16.0979 23.3203C16.0937 23.3242 16.0895 23.3282 16.0853 23.3321C16.0825 23.3347 16.0796 23.3371 16.0769 23.34C16.0741 23.3431 16.0717 23.3468 16.0688 23.3502C16.0649 23.3546 16.0612 23.3591 16.0578 23.3638C16.0528 23.3706 16.0481 23.3774 16.0439 23.3845C16.041 23.3892 16.0379 23.394 16.0353 23.3987C16.0311 23.4065 16.0271 23.4147 16.0237 23.4228C16.0216 23.4273 16.0195 23.4317 16.0177 23.4362C16.0133 23.448 16.0096 23.4598 16.0064 23.4721C16.0062 23.4737 16.0056 23.4752 16.0051 23.4768C16.002 23.4902 16.0001 23.5035 15.9988 23.5172C15.9988 23.5182 15.9986 23.5193 15.9983 23.5203C15.938 24.2989 15.9883 25.7907 17.0046 27.0319C17.2178 27.2919 17.4655 27.5307 17.7423 27.743V30.082C17.6413 29.9515 17.5402 29.821 17.439 29.6904C17.3677 29.5987 17.2497 29.5562 17.1362 29.5824C17.023 29.6086 16.9352 29.698 16.9113 29.8118C16.8605 30.054 16.8099 30.2959 16.759 30.5376C16.5197 29.9056 16.2455 29.2862 15.9398 28.6872C15.7715 28.3564 15.6119 28.0675 15.4517 27.8044C15.1914 27.3755 14.9768 27.0922 14.787 26.8421C14.7097 26.7401 14.6368 26.6439 14.5644 26.543C14.3841 26.2916 14.2454 26.0604 14.1004 25.7699C13.3937 24.356 13.3174 23.0225 13.2605 21.9466C13.5581 21.5883 14.2467 20.9131 15.3343 20.7141L15.3343 20.7142ZM5.12074 17.8011C5.38234 18.4761 5.50922 19.322 5.45705 19.9846C5.26438 19.9936 5.08089 19.97 4.90945 19.9128C4.49921 19.7755 4.08008 19.3175 3.72932 18.6228C3.15367 17.4838 3.02363 16.25 3.03678 15.3037C3.77099 15.6969 4.68267 16.6725 5.12074 17.8011ZM3.19693 18.8918C3.62526 19.7396 4.15212 20.2882 4.72071 20.4787C4.91862 20.5445 5.12624 20.5784 5.3404 20.582C5.26753 20.7849 5.16739 20.9246 5.04917 20.9799C4.49685 21.2395 3.12168 20.0994 2.46954 18.8396C1.8724 17.6846 1.75968 16.2659 1.99586 15.5613C2.0454 15.4135 2.13479 15.2226 2.27923 15.1534C2.3293 15.1293 2.38645 15.1201 2.44463 15.1196C2.4116 16.1577 2.5314 17.575 3.19696 18.8917L3.19693 18.8918ZM29.1436 7.83938C28.8021 7.70569 28.4162 7.66559 28.0295 7.7306L26.7513 7.94529L22.7013 7.0168C22.5999 6.99373 22.5351 6.93423 22.4985 6.88835C22.4468 6.82361 22.4195 6.74523 22.4195 6.66187C22.4195 6.53971 22.4827 6.42726 22.5823 6.36067C24.3347 6.79817 25.7919 7.03201 26.7125 7.03201C27.0258 7.03201 27.2772 7.00501 27.4567 6.94969C27.7755 6.8514 28.0198 6.68546 28.1129 6.61652C28.4796 7.00868 28.8233 7.4163 29.1435 7.8394L29.1436 7.83938ZM30.929 10.8817C30.7541 10.8067 30.5733 10.7459 30.3895 10.7011C30.2519 10.6678 30.1132 10.6437 29.9735 10.6274C30.1777 10.3349 30.2975 9.99413 30.3148 9.63998C30.5379 10.0434 30.7429 10.4576 30.929 10.8817ZM32.2069 16.7294C32.0182 17.0668 31.7704 17.3777 31.4818 17.6385C31.1809 17.562 30.886 17.4584 30.6045 17.3271C30.2781 17.1751 29.9683 16.9866 29.6802 16.7667C29.6907 16.7394 29.7004 16.7121 29.7093 16.6841C29.7355 16.6013 29.7541 16.515 29.7654 16.4267C30.2905 16.3625 30.8027 16.2282 31.2905 16.0259C31.5867 15.9032 31.8725 15.7554 32.1446 15.5855C32.18 15.9674 32.2007 16.3502 32.207 16.7295L32.2069 16.7294ZM21.5269 13.7311C21.4462 13.6323 21.4535 13.4769 21.544 13.3704C21.6016 13.3025 21.6858 13.2635 21.7746 13.2635C21.8643 13.2635 21.9471 13.3028 22.0024 13.3723C22.9073 14.5044 22.9862 16.0909 22.1899 17.1444C21.6619 17.8432 20.7903 18.2608 19.8582 18.2614C19.5357 18.2614 19.218 18.2108 18.914 18.1106C18.0188 17.8176 17.4958 17.163 17.2146 16.6658C17.1546 16.5596 17.1784 16.4621 17.1981 16.4133C17.2319 16.3287 17.3016 16.265 17.3902 16.238C17.4185 16.2293 17.4474 16.2251 17.4786 16.2251C17.5839 16.2251 17.6801 16.2794 17.7292 16.3672C17.9572 16.774 18.38 17.3085 19.1009 17.5444C20.049 17.8546 21.1479 17.5347 21.7139 16.7848C22.3553 15.9365 22.2769 14.6524 21.527 13.7312L21.5269 13.7311ZM25.3373 12.4194C25.2683 12.3405 25.163 12.3035 25.0599 12.3221L23.8974 12.5311C24.132 12.2629 24.3813 12.0086 24.6437 11.7704C25.0018 11.4453 25.3887 11.1486 25.7931 10.8833L26.2131 10.9965C26.049 11.1588 25.947 11.3839 25.947 11.6322C25.947 12.1255 26.3484 12.5269 26.8417 12.5269C27.335 12.5269 27.7363 12.1255 27.7363 11.6322C27.7363 11.5515 27.7246 11.4736 27.7046 11.3992L27.7861 11.4212C27.9573 11.4676 28.133 11.4901 28.3081 11.4901C28.5264 11.4901 28.744 11.4537 28.9521 11.3842C28.9406 11.7231 28.8905 12.0582 28.8006 12.384C28.6703 12.8555 28.4622 13.2965 28.1822 13.6988C27.5327 13.2488 26.7499 13.0032 25.946 13.0032C25.7232 13.0032 25.5014 13.0218 25.283 13.0585L25.3963 12.7067C25.4288 12.6073 25.4062 12.4983 25.3373 12.4194ZM20.2464 10.3071C20.1651 10.2287 20.0464 10.203 19.9402 10.2405C19.4445 10.4154 18.9491 10.5905 18.4537 10.7656C18.622 10.5606 18.7753 10.3509 18.9124 10.1367C19.0715 9.88951 19.2123 9.63104 19.3305 9.3694C19.5562 8.87213 19.8595 8.16726 20.0357 7.72973C20.1264 7.50429 20.2013 7.31188 20.2663 7.14517C20.3646 6.89247 20.4425 6.69299 20.5151 6.53466C20.6168 6.31026 20.7083 6.16662 20.8519 6.00462C21.258 5.54746 21.6926 5.34011 21.9854 5.24679C22.7501 5.00353 23.4796 5.23028 23.9313 5.44365L22.5878 5.72204C22.5377 5.73252 22.4877 5.7472 22.4394 5.76608C22.0706 5.90684 21.8226 6.26701 21.8226 6.66208C21.8226 6.87887 21.8968 7.09145 22.0315 7.26027C22.1673 7.4304 22.3579 7.55072 22.5679 7.59843L25.2084 8.20396L23.7873 8.44198C23.7058 8.45535 23.628 8.47894 23.5619 8.50961C23.2261 8.65509 22.9999 8.98565 22.9849 9.35313C22.9692 9.78802 23.2413 10.172 23.6523 10.3036C23.4544 10.5291 23.2321 10.7133 22.9862 10.8515C22.6192 11.0575 22.3065 11.1047 21.9443 11.1595C21.7574 11.1878 21.5644 11.2169 21.3487 11.2691C20.8572 11.3881 20.3798 11.5983 19.9219 11.8969L20.3232 10.6106C20.3578 10.5031 20.3276 10.3855 20.2464 10.3071ZM18.624 6.80709C18.6515 6.6865 18.6817 6.55387 18.7286 6.38924C18.921 6.36303 19.1727 6.35543 19.4529 6.41598C19.5926 6.44613 19.7284 6.492 19.8602 6.55045C19.8146 6.66291 19.7659 6.78769 19.7108 6.92871C19.6466 7.09386 19.5724 7.28417 19.4825 7.50698C19.309 7.93767 19.0101 8.63236 18.7874 9.12331C18.6925 9.33354 18.5805 9.54063 18.4558 9.74116C18.3305 9.79122 18.0917 9.85754 17.8196 9.78257C17.4602 9.68611 17.3676 9.54822 17.3446 9.49318C17.2895 9.36263 17.4282 9.14821 17.6783 8.78071C17.8253 8.56444 18.0086 8.29497 18.1824 7.97228C18.4872 7.40738 18.5475 7.14235 18.624 6.80709ZM29.3161 8.636C29.2191 8.81373 29.0948 8.96158 28.9449 9.0756C28.9428 9.07718 28.7286 9.23655 28.4408 9.31362C28.0267 9.42346 26.8363 9.30602 25.0097 8.84205L26.7836 8.54479C26.7865 8.54452 26.7894 8.544 26.792 8.54348L28.1284 8.31909C28.5465 8.24883 28.9575 8.34504 29.2558 8.58306C29.2773 8.60009 29.2962 8.61818 29.3161 8.636ZM23.8509 9.74118C23.6863 9.69662 23.5756 9.54589 23.5819 9.37603C23.5861 9.27065 23.6364 9.1734 23.7188 9.10708C25.5847 9.65075 27.12 9.94745 28.0295 9.94745C28.2592 9.94745 28.4492 9.92858 28.5947 9.89004C29.0013 9.78126 29.2944 9.55975 29.3062 9.55058C29.4422 9.44703 29.5623 9.32567 29.6674 9.18831C29.68 9.23104 29.6912 9.27456 29.6996 9.31938C29.7982 9.8481 29.5625 10.365 29.0847 10.6681C28.7428 10.8846 28.3266 10.9491 27.9425 10.8453L23.8509 9.74118ZM27.1402 11.6322C27.1402 11.7966 27.0065 11.9305 26.8419 11.9305C26.6775 11.9305 26.5435 11.7969 26.5435 11.6322C26.5435 11.4679 26.6772 11.3339 26.8419 11.3339C27.0065 11.3339 27.1402 11.4679 27.1402 11.6322ZM28.2461 17.7809C28.4002 17.9227 28.5397 18.0703 28.6582 18.2155C28.5252 18.3552 28.3764 18.4653 28.2125 18.5426C27.8214 18.7269 27.2018 18.6855 26.4683 18.426C25.2667 18.0016 24.3193 17.1999 23.6736 16.5069C23.9515 16.4295 24.2915 16.3873 24.6648 16.3873C25.3702 16.3873 26.1889 16.5354 26.9058 16.871C27.3716 17.0888 27.8471 17.4115 28.2461 17.7809ZM23.0215 16.9221C23.0412 16.8702 23.0763 16.8241 23.118 16.7834C24.0583 17.8306 25.1435 18.5909 26.2702 18.9888C26.7672 19.1644 27.2223 19.2527 27.6218 19.2527C27.9421 19.2527 28.2265 19.1961 28.4682 19.0821C28.6569 18.9927 28.8304 18.8739 28.9875 18.7285C29.0173 18.7958 29.0401 18.8603 29.0551 18.9203C29.0551 18.9206 29.0553 18.9211 29.0553 18.9214C29.0842 19.037 29.0829 19.1366 29.0519 19.2171C28.8312 19.7883 27.05 19.9138 25.7084 19.4533C24.479 19.0315 23.4169 18.0846 23.0999 17.4125C23.0328 17.2718 22.9654 17.0718 23.0215 16.9221ZM31.0622 15.4749C30.6375 15.651 30.1927 15.769 29.736 15.8288C29.6849 15.5902 29.5874 15.3425 29.4493 15.094C30.0378 14.7186 30.5641 14.2607 31.0165 13.7291C31.2467 13.458 31.4556 13.1702 31.6417 12.8688C31.8312 13.5416 31.9736 14.229 32.0682 14.9216C31.7539 15.142 31.4163 15.3278 31.0622 15.4749ZM27.2814 6.37995C26.879 6.50342 25.7139 6.43605 23.914 6.05648L26.8846 5.44099C27.1603 5.67691 27.4308 5.92515 27.6919 6.18359C27.6051 6.24047 27.4581 6.32543 27.2814 6.37995ZM24.793 5.26512L24.7075 5.20089C24.7039 5.19801 24.7002 5.19565 24.6965 5.19303C24.42 5.00403 23.5565 4.48606 22.5043 4.54922C22.6524 4.35262 22.8196 4.17096 23.0058 4.00661C23.2692 3.77488 23.5636 3.583 23.8818 3.43384C24.7285 3.86453 25.5346 4.37487 26.2869 4.95581L24.793 5.26512ZM22.6115 3.55887C22.2361 3.89021 21.9265 4.28053 21.688 4.71907C21.3309 4.8504 20.8518 5.10729 20.4064 5.60904C20.2897 5.74063 20.198 5.86514 20.1146 6.00931C19.9419 5.93172 19.7623 5.87274 19.5783 5.83316C19.3678 5.78781 19.15 5.7692 18.9332 5.77575C19.173 5.15947 19.6357 4.33296 20.5122 3.66505C21.0693 3.23987 21.7296 2.93842 22.4256 2.78743C22.6911 2.88888 22.9554 2.99871 23.2162 3.11563C23.0025 3.24538 22.8002 3.39293 22.6115 3.55887Z" fill="#A5281D"/>
<path d="M15.6378 23.5127C15.6378 24.0068 15.2373 24.4076 14.7432 24.4076C14.249 24.4076 13.8485 24.0068 13.8485 23.5127C13.8485 23.0186 14.2491 22.618 14.7432 22.618C15.2373 22.618 15.6378 23.0186 15.6378 23.5127Z" fill="#A5281D"/>
<path d="M22.8885 21.0888C23.0728 20.6709 23.1085 20.2303 22.984 19.9097C22.9087 19.7162 22.7795 19.5744 22.6104 19.5002C22.1441 19.295 21.5595 19.6678 21.251 20.3679C21.0667 20.7858 21.0308 21.2264 21.1556 21.547C21.2308 21.7404 21.36 21.8823 21.5291 21.9564C21.6153 21.9945 21.7058 22.0125 21.7978 22.0125C22.2025 22.0128 22.6372 21.6595 22.8885 21.0888ZM22.343 20.8481C22.1475 21.2917 21.8479 21.445 21.7697 21.4104C21.7493 21.4015 21.7281 21.3724 21.7121 21.3307C21.6617 21.201 21.6539 20.9338 21.7975 20.6082C21.9753 20.2051 22.2384 20.0413 22.3443 20.0413C22.3548 20.0413 22.364 20.0428 22.3711 20.046C22.3915 20.0549 22.4128 20.084 22.4287 20.1257C22.4786 20.2557 22.4864 20.5225 22.343 20.8481Z" fill="#A5281D"/>
<path d="M24.01 22.0135C23.2733 21.8057 22.6135 22.0188 22.4749 22.5098C22.3368 23.0005 22.7874 23.5274 23.5234 23.7353C23.7137 23.789 23.8985 23.8144 24.071 23.8144C24.5659 23.8144 24.9558 23.6032 25.0585 23.239C25.1969 22.7483 24.7463 22.2214 24.01 22.0135ZM24.4844 23.0771C24.4611 23.1602 24.152 23.2928 23.6855 23.1612C23.2474 23.0375 23.0212 22.7701 23.049 22.6718C23.0652 22.6139 23.2199 22.5321 23.4697 22.5321C23.5788 22.5321 23.7062 22.5475 23.8477 22.5876C24.314 22.7192 24.5077 22.994 24.4844 23.0771Z" fill="#A5281D"/>
<path d="M20.6036 29.4542C20.2801 29.5211 19.9873 29.6595 19.7789 29.8433C19.5286 30.0642 19.4161 30.3408 19.4704 30.6019C19.5241 30.8635 19.737 31.0729 20.0544 31.1765C20.2041 31.2253 20.3729 31.2499 20.5499 31.2499C20.6851 31.2499 20.8249 31.2355 20.9648 31.2066C21.7143 31.0522 22.2019 30.5589 22.0988 30.0583C21.9952 29.5597 21.3525 29.2998 20.6036 29.4542ZM20.8448 30.6226C20.6251 30.6679 20.4044 30.6632 20.2395 30.6095C20.1229 30.5715 20.062 30.5167 20.0547 30.4813C20.0474 30.4464 20.0817 30.3717 20.1737 30.2907C20.3037 30.1762 20.5045 30.0841 20.7245 30.0385C20.8319 30.0165 20.9302 30.0073 21.0186 30.0073C21.3198 30.0073 21.5017 30.1146 21.515 30.1796C21.5323 30.2642 21.3192 30.5248 20.8448 30.6226Z" fill="#A5281D"/>
<path d="M30.5717 19.8567C30.1045 19.6509 29.52 20.024 29.2114 20.7244C29.2114 20.7247 29.2111 20.7247 29.2111 20.7247C28.9037 21.4251 29.0232 22.1082 29.4895 22.3138C29.5758 22.3518 29.6662 22.3698 29.758 22.3698C30.163 22.3698 30.5981 22.0165 30.8498 21.4456C31.1573 20.7451 31.0377 20.062 30.5717 19.8567ZM30.3038 21.2054C30.12 21.6222 29.8238 21.8089 29.7299 21.768C29.6508 21.7331 29.5627 21.4088 29.7572 20.965C29.9528 20.5215 30.2511 20.3674 30.3313 20.4028C30.4102 20.4374 30.4985 20.7622 30.3038 21.2054Z" fill="#A5281D"/>
<path d="M19.2098 19.4199C18.9118 19.27 18.6132 19.2687 18.3906 19.4163C17.966 19.6978 17.9641 20.3911 18.3864 21.0292C18.3864 21.0292 18.3867 21.0292 18.3867 21.0294C18.696 21.496 19.1214 21.7647 19.4942 21.7647C19.6305 21.7647 19.7598 21.7288 19.8738 21.6533C20.0279 21.5513 20.1312 21.3899 20.1726 21.1864C20.241 20.8496 20.1309 20.4208 19.8782 20.0399C19.6955 19.7649 19.4583 19.5447 19.2098 19.4199ZM19.5875 21.0677C19.5786 21.1112 19.5629 21.1432 19.544 21.1558C19.4719 21.2035 19.1513 21.1031 18.884 20.7C18.6166 20.296 18.6483 19.9612 18.7204 19.9135C18.75 19.8939 18.8321 19.8978 18.9419 19.9531C19.0968 20.031 19.2567 20.1827 19.3807 20.3696C19.5776 20.6666 19.6153 20.9314 19.5875 21.0677Z" fill="#A5281D"/>
<path d="M16.8952 14.468C17.2045 14.9346 17.63 15.2033 18.0027 15.2033C18.139 15.2033 18.2683 15.1674 18.3823 15.0919C18.5364 14.99 18.6397 14.8285 18.6811 14.6251C18.7495 14.2882 18.6394 13.8594 18.3868 13.4785C18.2046 13.2038 17.9673 12.9836 17.7188 12.8585C17.4208 12.7086 17.1222 12.7073 16.8997 12.8549C16.475 13.1364 16.4732 13.8297 16.8955 14.4678C16.8949 14.4678 16.8952 14.4678 16.8952 14.468ZM17.2289 13.3519C17.2585 13.3322 17.3406 13.3361 17.4504 13.3914C17.6053 13.4693 17.7652 13.6211 17.8892 13.808C18.0863 14.105 18.1238 14.3697 18.0963 14.506C18.0874 14.5495 18.0717 14.5815 18.0528 14.5941C17.9807 14.6418 17.6601 14.5414 17.3927 14.1382C17.1251 13.7343 17.1566 13.3996 17.2289 13.3519Z" fill="#A5281D"/>
<path d="M6.15834 16.8536C6.15834 16.8536 6.1586 16.8536 6.1586 16.8539C6.46792 17.3205 6.89335 17.5892 7.26613 17.5892C7.40243 17.5892 7.53167 17.5533 7.64569 17.4778C7.79983 17.3758 7.90311 17.2143 7.94453 17.0109C8.01294 16.6741 7.90285 16.2452 7.65015 15.8643C7.46797 15.5896 7.23073 15.3694 6.98223 15.2444C6.68419 15.0945 6.38562 15.0931 6.16306 15.2407C5.73788 15.5223 5.73604 16.2156 6.15834 16.8536ZM6.4923 15.7377C6.52192 15.7181 6.60397 15.722 6.71381 15.7773C6.86873 15.8552 7.02863 16.0069 7.15262 16.1938C7.34975 16.4908 7.38723 16.7556 7.35971 16.8919C7.35079 16.9354 7.33506 16.9674 7.31619 16.98C7.24411 17.0277 6.92351 16.9273 6.65614 16.5241C6.3885 16.1202 6.41995 15.7857 6.4923 15.7377Z" fill="#A5281D"/>
<path d="M6.15427 24.636C6.3084 24.534 6.41168 24.3725 6.4531 24.1691C6.52151 23.8323 6.41142 23.4034 6.15872 23.0225C5.97654 22.7478 5.73931 22.5276 5.49081 22.4026C5.19276 22.2527 4.89419 22.2513 4.67164 22.3989C4.24698 22.6805 4.24514 23.3738 4.66744 24.0118C4.66744 24.0118 4.66771 24.0118 4.66771 24.0121C4.97703 24.4787 5.40245 24.7474 5.77523 24.7474C5.91101 24.7474 6.0405 24.7115 6.15427 24.636ZM5.16472 23.6826C4.89734 23.2787 4.92906 22.9439 5.00114 22.8962C5.03077 22.8765 5.11282 22.8805 5.22265 22.9358C5.37757 23.0136 5.53747 23.1654 5.66147 23.3523C5.85859 23.6493 5.89608 23.9141 5.86855 24.0503C5.85964 24.0939 5.84391 24.1258 5.82503 24.1384C5.75269 24.1861 5.43209 24.0858 5.16472 23.6826Z" fill="#A5281D"/>
<path d="M5.86378 25.083C5.43912 25.3645 5.43728 26.0578 5.85958 26.6959C5.85958 26.6959 5.85985 26.6959 5.85985 26.6961C6.16917 27.1627 6.59459 27.4314 6.96737 27.4314C7.10368 27.4314 7.23291 27.3955 7.34694 27.32C7.50107 27.218 7.60435 27.0565 7.64577 26.8531C7.71418 26.5163 7.60409 26.0875 7.35139 25.7066C7.16921 25.4318 6.93198 25.2116 6.68348 25.0866C6.38491 24.9369 6.08634 24.9356 5.86378 25.083ZM7.06069 26.7346C7.05177 26.7782 7.03605 26.8101 7.01717 26.8227C6.94483 26.8704 6.62449 26.77 6.35712 26.3669C6.08974 25.9629 6.12146 25.6282 6.19355 25.5804C6.22317 25.5608 6.30522 25.565 6.41505 25.62C6.56998 25.6979 6.72988 25.8497 6.85387 26.0366C7.05099 26.3333 7.08848 26.5981 7.06069 26.7346Z" fill="#A5281D"/>
<path d="M6.11271 13.4709C6.08965 13.138 5.93839 12.8803 5.69775 12.7644C5.45712 12.6483 5.16169 12.6903 4.88644 12.879C4.65707 13.0365 4.45182 13.2869 4.30843 13.5842C4.16504 13.8812 4.09663 14.1975 4.11602 14.4749C4.13909 14.8078 4.29034 15.0652 4.53098 15.1813C4.62351 15.2258 4.72182 15.2473 4.82195 15.2473C5.22013 15.2473 5.65447 14.9118 5.92001 14.3616C6.06366 14.0646 6.13211 13.7482 6.11271 13.4709ZM5.3832 14.1024C5.17271 14.5386 4.86837 14.6817 4.79052 14.6442C4.75827 14.6287 4.72 14.5561 4.71135 14.4334C4.69929 14.2604 4.74831 14.0455 4.84582 13.8434C4.94334 13.6413 5.08122 13.469 5.22408 13.3707C5.30194 13.3173 5.36747 13.296 5.40837 13.296C5.42095 13.296 5.43091 13.2979 5.43851 13.3015C5.47075 13.317 5.50903 13.3896 5.51768 13.5123C5.52973 13.6853 5.48071 13.9002 5.3832 14.1024Z" fill="#A5281D"/>
<path d="M4.89318 12.3287C4.91756 12.3287 4.94246 12.3274 4.96737 12.3245C5.47329 12.2668 5.79076 11.6506 5.70554 10.8904C5.61956 10.1307 5.17262 9.59939 4.66566 9.65676C4.15869 9.71443 3.84125 10.3307 3.92722 11.0906C4.00821 11.8134 4.41633 12.3287 4.89318 12.3287ZM4.73276 10.2495C4.73433 10.2492 4.73616 10.2492 4.738 10.2492C4.82818 10.2492 5.05964 10.4854 5.11311 10.957C5.16711 11.4383 4.98598 11.7219 4.90078 11.7316C4.80117 11.7447 4.57101 11.4763 4.52042 11.0241V11.0238C4.46563 10.5428 4.64703 10.2591 4.73276 10.2495Z" fill="#A5281D"/>
<path d="M16.8597 2.44164H16.8594C16.5663 2.28987 16.251 2.21228 15.9742 2.22407C15.6408 2.2377 15.3792 2.38162 15.2565 2.61832C15.1333 2.85556 15.1666 3.15255 15.3477 3.43306C15.4987 3.66663 15.7433 3.87895 16.0364 4.03099C16.3226 4.1791 16.6105 4.25118 16.8655 4.25118C17.2154 4.25118 17.5035 4.11514 17.6396 3.85326C17.8739 3.40082 17.5386 2.79395 16.8597 2.44164ZM17.11 3.57849C17.0628 3.66946 16.7147 3.71008 16.3105 3.50091C16.111 3.39762 15.9425 3.25476 15.8486 3.10902C15.7818 3.00573 15.7692 2.92448 15.7857 2.89249C15.8022 2.86077 15.8756 2.8246 15.9986 2.81962C16.0085 2.81936 16.0188 2.8191 16.029 2.8191C16.1965 2.8191 16.3973 2.87362 16.585 2.97113C17.0149 3.19421 17.1496 3.50221 17.11 3.57849Z" fill="#A5281D"/>
<path d="M13.5427 2.94094H13.5425C12.7805 2.8754 12.172 3.2091 12.1283 3.71662C12.1052 3.98295 12.2494 4.24456 12.5235 4.43459C12.7521 4.59292 13.0591 4.69567 13.3875 4.72399C13.4494 4.72923 13.5107 4.73185 13.5716 4.73185C13.8345 4.73185 14.0843 4.68205 14.2893 4.58742C14.5923 4.44744 14.7792 4.2144 14.8023 3.94886C14.8185 3.7651 14.7567 3.58397 14.6235 3.42512C14.4022 3.16141 13.9983 2.98052 13.5427 2.94094ZM14.0392 4.04557C13.8819 4.11818 13.663 4.1486 13.4389 4.1292C13.2156 4.11006 13.0056 4.04243 12.8633 3.94387C12.7621 3.87388 12.7194 3.80336 12.7225 3.76771C12.7293 3.69013 12.9571 3.52943 13.3566 3.52943C13.3996 3.52943 13.4444 3.53127 13.4911 3.5352C13.8463 3.56613 14.0767 3.70166 14.1661 3.80834C14.1944 3.84216 14.2096 3.87414 14.2078 3.89694C14.2046 3.93233 14.1506 3.9942 14.0392 4.04557Z" fill="#A5281D"/>
<path d="M27.0022 20.76C26.6737 20.7314 26.3537 20.7799 26.1007 20.8965C25.7977 21.0365 25.6105 21.2695 25.5874 21.5353C25.5437 22.0434 26.085 22.4764 26.8468 22.5428C26.9086 22.548 26.97 22.5506 27.0308 22.5506C27.2937 22.5506 27.5435 22.5008 27.7485 22.4062C28.0515 22.2662 28.2384 22.0332 28.2615 21.7676C28.2777 21.5839 28.2161 21.4027 28.0827 21.2439C27.8617 20.9807 27.4578 20.7995 27.0022 20.76ZM27.4987 21.8649C27.3414 21.9375 27.1225 21.9679 26.8987 21.9485C26.4163 21.9065 26.1746 21.673 26.182 21.5867C26.1851 21.5514 26.2391 21.4898 26.351 21.4381C26.4774 21.3797 26.6433 21.3485 26.8192 21.3485C26.8625 21.3485 26.9065 21.3503 26.9505 21.3542C27.3057 21.3852 27.5361 21.5207 27.6258 21.6274C27.6541 21.6612 27.6693 21.6932 27.6672 21.716C27.664 21.7516 27.6101 21.8135 27.4987 21.8649Z" fill="#A5281D"/>
</svg>
