<svg width="26" height="29" viewBox="0 0 26 29" fill="none" xmlns="http://www.w3.org/2000/svg">
<circle cx="16.8415" cy="14.8415" r="8.4878" fill="#0E0906" stroke="#A09693" stroke-width="0.707317"/>
<circle cx="11.3294" cy="18.0365" r="8.4878" fill="#0E0906" stroke="#A09693" stroke-width="0.707317"/>
<circle cx="16.2805" cy="14.5" r="7.07317" stroke="#A09693" stroke-width="0.707317"/>
<circle cx="11.3293" cy="18.0366" r="7.07317" stroke="#A09693" stroke-width="0.707317"/>
<circle cx="5.30488" cy="15.9146" r="4.95122" fill="#0E0906" stroke="#A09693" stroke-width="0.707317"/>
<circle cx="13.0975" cy="23.3415" r="5.30488" fill="#0E0906" stroke="#A09693" stroke-width="0.707317"/>
<circle cx="5.67084" cy="15.9146" r="2.82927" stroke="#A09693" stroke-width="0.707317"/>
<circle cx="13.0976" cy="23.3415" r="3.18293" stroke="#A09693" stroke-width="0.707317"/>
<circle cx="16.9879" cy="7.42683" r="7.07317" fill="#0E0906" stroke="#A09693" stroke-width="0.707317"/>
<circle cx="16.9877" cy="7.42683" r="4.95122" stroke="#A09693" stroke-width="0.707317"/>
<circle cx="16.9879" cy="7.42682" r="2.82927" stroke="#A09693" stroke-width="0.707317"/>
<circle cx="7.4391" cy="9.90241" r="6.0122" fill="#0E0906" stroke="#A09693" stroke-width="0.707317"/>
<circle cx="7.43913" cy="9.90245" r="4.59756" stroke="#A09693" stroke-width="0.707317"/>
<circle cx="7.43901" cy="9.90245" r="2.47561" stroke="#A09693" stroke-width="0.707317"/>
<circle cx="20.3049" cy="20.3049" r="4.95122" fill="#0E0906" stroke="#A09693" stroke-width="0.707317"/>
<circle cx="20.5244" cy="20.1586" r="2.82927" stroke="#A09693" stroke-width="0.707317"/>
<circle cx="13.4512" cy="15.2073" r="8.4878" fill="#0E0906" stroke="#A09693" stroke-width="0.707317"/>
<circle cx="13.4512" cy="15.2073" r="4.95122" stroke="#A09693" stroke-width="0.707317"/>
<circle cx="13.4512" cy="15.2073" r="2.82927" stroke="#A09693" stroke-width="0.707317"/>
<circle cx="13.4512" cy="15.2073" r="7.07317" stroke="#A09693" stroke-width="0.707317"/>
</svg>
