<svg width="25" height="25" viewBox="0 0 25 25" fill="none" xmlns="http://www.w3.org/2000/svg">
<g clip-path="url(#clip0_122_3212)">
<path fill-rule="evenodd" clip-rule="evenodd" d="M11.8919 1.56903C9.17973 1.73938 7.51964 2.77303 6.65004 3.87979C6.06621 4.62159 5.81085 5.41838 5.81085 6.08113C5.81085 6.74406 6.0601 7.53455 6.65004 8.28248C7.22779 9.01833 8.15811 9.72369 9.50819 10.1616C7.61702 10.7575 6.47986 11.8826 5.99936 12.8738C5.78049 13.3238 5.6892 13.7617 5.70752 14.1448L3.84671 14.6131C3.6521 14.6618 3.50007 14.8016 3.42711 14.984C3.35415 15.1664 3.37841 15.3733 3.48785 15.5373L4.70407 17.3616C4.8074 17.5137 4.97164 17.6109 5.14794 17.6292C5.33034 17.6475 5.5068 17.5805 5.64051 17.4529L7.11209 15.9814C7.58038 16.1334 8.12146 16.1091 8.69308 15.963C9.16137 15.8414 9.66006 15.6347 10.1526 15.4156C10.1162 15.4825 10.0858 15.5493 10.0554 15.6225C9.75135 16.3278 9.70266 17.0514 9.97023 17.6353H6.42492C6.09049 17.6353 5.81681 17.909 5.81681 18.2434V19.2408C3.65807 19.5205 2.01613 19.9402 1.19519 20.4144C0.58708 20.7671 0.34375 21.2049 0.34375 21.5941C0.34375 21.8799 0.465406 22.1779 0.751135 22.4515C1.00649 22.6948 1.44442 22.9318 2.04032 23.1448C4.00447 23.8442 7.95114 24.3306 12.5059 24.3306C17.0606 24.3306 21.0133 23.8442 22.9714 23.1448C23.5673 22.932 23.9991 22.6887 24.2606 22.4515C24.5524 22.1778 24.668 21.8798 24.668 21.5941C24.668 21.211 24.4247 20.7733 23.8288 20.4266C23.0138 19.9522 21.366 19.5266 19.195 19.2469V18.2495C19.195 17.9151 18.9213 17.6414 18.5869 17.6414H15.0416C15.3092 17.0637 15.2605 16.3339 14.9564 15.6286C14.926 15.5617 14.8957 15.4949 14.8651 15.4279C15.3577 15.6468 15.8563 15.8475 16.3247 15.9691C16.8963 16.1151 17.4376 16.1395 17.9057 15.9875L19.3772 17.459C19.505 17.5868 19.6874 17.6537 19.8698 17.6353C20.0522 17.617 20.2165 17.5198 20.3137 17.3677L21.5299 15.5434C21.6393 15.3792 21.6636 15.1725 21.5906 14.9901C21.5177 14.8077 21.3657 14.6678 21.171 14.6192L19.3102 14.1509C19.3224 13.7678 19.2312 13.3301 19.0184 12.8799C18.5684 11.9494 17.5407 10.9097 15.8623 10.2893C17.115 9.91844 17.1089 8.43466 16.8597 7.83859C16.6711 7.37638 16.2819 7.2853 16.0873 7.30953C15.7225 7.35823 15.169 7.41287 14.5367 7.44324C14.7981 7.05401 14.9502 6.5918 14.9502 6.0872C14.9502 5.58243 14.7981 5.12023 14.5367 4.73117C15.1751 4.76154 15.7225 4.81634 16.0873 4.86487C16.288 4.88913 16.6711 4.79802 16.8597 4.33582C17.115 3.70938 17.115 2.10411 15.6618 1.83654C14.7435 1.66619 13.8923 1.58119 13.1199 1.55675L13.1202 0.608106C13.1202 0.273683 12.8465 0 12.5121 0C12.1777 0 11.904 0.273683 11.904 0.608106V1.56896L11.8919 1.56903ZM5.81085 20.4629C4.21761 20.6757 2.94067 20.9555 2.14387 21.296C1.94926 21.3812 1.78501 21.4664 1.65743 21.5514C1.64521 21.5575 1.63317 21.5697 1.62095 21.5817C1.65743 21.6121 1.70612 21.6486 1.74261 21.673C1.9189 21.7825 2.1561 21.8858 2.43589 21.9893C4.32094 22.6581 8.1217 23.1022 12.494 23.1022C16.8663 23.1022 20.667 22.6583 22.5521 21.9893C22.8319 21.886 23.0689 21.7825 23.2454 21.673C23.288 21.6488 23.3306 21.6123 23.3671 21.5817C23.3548 21.5695 23.3428 21.5634 23.3367 21.5575C23.215 21.4662 23.0569 21.3871 22.8623 21.3021C22.0656 20.9616 20.7826 20.6757 19.1771 20.4629V20.6698C19.1771 21.0042 18.9035 21.2779 18.569 21.2779L6.41903 21.2777C6.0846 21.2777 5.81092 21.004 5.81092 20.6696V20.4628L5.81085 20.4629ZM15.9176 18.8454H17.973V20.0616H15.3095L15.9176 18.8454ZM12.269 20.0616H13.9474L14.5555 18.8454H12.8771L12.269 20.0616ZM9.22842 20.0616H10.9068L11.515 18.8454H9.83653L9.22842 20.0616ZM8.47441 18.8454L7.8663 20.0616H7.02711V18.8454H8.47441ZM12.5062 17.6292C13.2785 17.6292 13.7346 17.4833 13.917 17.1428C14.0751 16.8448 13.9899 16.4678 13.8318 16.1029C13.5703 15.4948 13.0533 14.905 12.4939 14.6374C11.9406 14.905 11.4236 15.4948 11.156 16.1029C10.9979 16.4738 10.9127 16.8508 11.0709 17.1428C11.2533 17.4772 11.7093 17.6292 12.4817 17.6292H12.5062ZM6.05414 15.3062L4.96567 15.5799L5.29399 16.0664L6.05414 15.3062ZM18.94 15.3062L19.7001 16.0664L20.0284 15.5799L18.94 15.3062ZM6.9663 14.3272C7.37979 15.1481 8.16419 14.8989 8.98522 14.5826C9.67238 14.315 10.396 13.9502 11.0588 13.6947C11.5756 13.494 12.0682 13.3723 12.5 13.3723C12.9318 13.3723 13.4183 13.5001 13.9412 13.6947C14.6041 13.944 15.3217 14.315 16.0148 14.5826C16.8356 14.8989 17.6202 15.142 18.0398 14.3272V14.315C18.1128 14.1813 18.1067 14.0049 18.0641 13.8164C18.0033 13.5427 17.8573 13.2386 17.6263 12.9407C16.8419 11.9008 15.1635 10.946 12.5061 10.946C9.84858 10.946 8.17025 11.9007 7.38579 12.9407C7.1608 13.2386 7.00878 13.5427 6.94804 13.8164C6.90545 14.011 6.89934 14.1812 6.96636 14.315V14.3272H6.97247H6.9663ZM15.7656 3.60023C14.3002 3.45431 11.5272 3.33877 9.87914 4.00151C8.86977 4.40889 8.24333 5.08998 8.24333 6.07507C8.24333 7.0602 8.86977 7.74123 9.87914 8.14862C11.5272 8.81154 14.3001 8.696 15.7656 8.5499C15.7656 8.6047 15.7717 8.65934 15.7656 8.70803C15.7473 8.88432 15.6743 9.07894 15.4312 9.12152C11.6792 9.8026 9.35012 9.10931 8.09742 8.03306C7.36764 7.40662 7.0271 6.66482 7.0271 6.06892C7.0271 5.47301 7.36763 4.73716 8.09742 4.10478C9.35012 3.02838 11.6792 2.33527 15.4312 3.01631C15.6745 3.0589 15.7475 3.25351 15.7656 3.4298V3.58793V3.60023ZM12.5001 4.86514C13.1689 4.86514 13.7163 5.41252 13.7163 6.08135C13.7163 6.75018 13.1689 7.29756 12.5001 7.29756C11.8313 7.29756 11.2839 6.75018 11.2839 6.08135C11.2839 5.41252 11.8313 4.86514 12.5001 4.86514ZM10.244 5.16919C10.0858 5.24215 9.93991 5.32122 9.81825 5.41844C9.59937 5.58268 9.45939 5.79545 9.45939 6.08136C9.45939 6.36709 9.5992 6.58001 9.81825 6.74429C9.93991 6.84151 10.0858 6.92058 10.244 6.99354C10.1284 6.71375 10.0677 6.40376 10.0677 6.08138C10.0677 5.75899 10.1284 5.45491 10.244 5.16919Z" fill="#A09693"/>
</g>
<defs>
<clipPath id="clip0_122_3212">
<rect width="25" height="25" fill="white"/>
</clipPath>
</defs>
</svg>
